<svg xmlns="http://www.w3.org/2000/svg" viewBox="0 0 100 100" fill="none">
  <defs>
    <!-- Traditional gold/brass gradient -->
    <linearGradient id="goldGradient" x1="0%" y1="0%" x2="100%" y2="100%">
      <stop offset="0%" style="stop-color:#fff8dc"/>
      <stop offset="25%" style="stop-color:#ffd700"/>
      <stop offset="50%" style="stop-color:#daa520"/>
      <stop offset="75%" style="stop-color:#b8860b"/>
      <stop offset="100%" style="stop-color:#8b7500"/>
    </linearGradient>
    <!-- Shiny highlight -->
    <linearGradient id="highlightGradient" x1="0%" y1="0%" x2="0%" y2="100%">
      <stop offset="0%" style="stop-color:#fffacd"/>
      <stop offset="50%" style="stop-color:#ffd700"/>
      <stop offset="100%" style="stop-color:#b8860b"/>
    </linearGradient>
    <!-- Dark background -->
    <radialGradient id="bgGradient" cx="50%" cy="50%" r="50%">
      <stop offset="0%" style="stop-color:#1a1a2e"/>
      <stop offset="100%" style="stop-color:#0d0d1a"/>
    </radialGradient>
    <filter id="glow" x="-20%" y="-20%" width="140%" height="140%">
      <feGaussianBlur stdDeviation="1.5" result="coloredBlur"/>
      <feMerge>
        <feMergeNode in="coloredBlur"/>
        <feMergeNode in="SourceGraphic"/>
      </feMerge>
    </filter>
    <filter id="innerShadow" x="-10%" y="-10%" width="120%" height="120%">
      <feOffset dx="1" dy="1"/>
      <feGaussianBlur stdDeviation="1"/>
      <feComposite in2="SourceAlpha" operator="arithmetic" k2="-1" k3="1"/>
      <feColorMatrix type="matrix" values="0 0 0 0 0.4  0 0 0 0 0.3  0 0 0 0 0  0 0 0 0.5 0"/>
      <feBlend in2="SourceGraphic"/>
    </filter>
  </defs>
  
  <!-- Outer oval background (communicator badge shape) -->
  <ellipse cx="50" cy="52" rx="42" ry="45" fill="url(#bgGradient)" stroke="#daa520" stroke-width="2"/>
  
  <!-- Delta arrowhead - main gold shape -->
  <path 
    d="M50 8
       Q58 22 75 85
       Q50 72 50 72
       Q50 72 25 85
       Q42 22 50 8
       Z"
    fill="url(#goldGradient)"
    filter="url(#glow)"
  />
  
  <!-- Delta highlight/shine -->
  <path 
    d="M50 15
       Q54 26 62 65
       L50 58
       L38 65
       Q46 26 50 15
       Z"
    fill="url(#highlightGradient)"
    opacity="0.4"
  />
  
  <!-- Left edge shine -->
  <path 
    d="M50 12 Q44 25 30 75 Q32 30 50 12 Z"
    fill="#fffacd"
    opacity="0.25"
  />
  
  <!-- Starfleet star - silver/white -->
  <g transform="translate(50, 48)" filter="url(#glow)">
    <path 
      d="M0 -11 L1.5 -2.5 L11 0 L1.5 2.5 L0 11 L-1.5 2.5 L-11 0 L-1.5 -2.5 Z"
      fill="#ffffff"
    />
    <circle cx="0" cy="0" r="2" fill="#ffd700"/>
  </g>
</svg>





